<svg xmlns="http://www.w3.org/2000/svg" version="1.1" xmlns:xlink="http://www.w3.org/1999/xlink" xmlns:svgjs="http://svgjs.dev/svgjs" width="2000" height="1500" viewBox="0 0 2000 1500"><rect width="2000" height="1500" fill="#1f2d5a"></rect><g transform="matrix(0.46360686138154844,0,0,0.46360686138154844,536.6382899729111,250.40486284789114)"><svg viewBox="0 0 229 247" data-background-color="#1f2d5a" preserveAspectRatio="xMidYMid meet" height="2157" width="2000" xmlns="http://www.w3.org/2000/svg" xmlns:xlink="http://www.w3.org/1999/xlink"><g id="tight-bounds" transform="matrix(1,0,0,1,-0.060546623494701635,-0.10000112342910938)"><svg viewBox="0 0 229.12109324698943 247.2" height="247.2" width="229.12109324698943"><g><svg viewBox="0 0 397.4975999999999 428.8623335699412" height="247.2" width="229.12109324698943"><g><rect width="397.4975999999999" height="13.135486851157788" x="0" y="235.68388552233455" fill="#fbfbfb" opacity="1" stroke-width="0" stroke="transparent" fill-opacity="1" class="rect-o-0" data-fill-palette-color="primary" rx="1%" id="o-0" data-palette-color="#fbfbfb"></rect></g><g transform="matrix(1,0,0,1,0.9887999999999693,283.2054636068897)"><svg viewBox="0 0 395.52 145.65686996305152" height="145.65686996305152" width="395.52"><g id="textblocktransform"><svg viewBox="0 0 395.52 145.65686996305152" height="145.65686996305152" width="395.52" id="textblock"><g><svg viewBox="0 0 395.52 145.65686996305152" height="145.65686996305152" width="395.52"><g transform="matrix(1,0,0,1,0,0)"><svg width="395.52" viewBox="2.829648971557617 -33.75032424926758 92.87034606933594 34.210323333740234" height="145.65686996305152" data-palette-color="#fbfbfb"><g class="undefined-text-0" data-fill-palette-color="primary" id="text-0"><path d="M18.81-30.28L18.81-30.28Q13.32-30.28 10.15-26.62 6.98-22.95 6.98-16.52 6.98-10.09 10.04-6.53 13.09-2.98 18.76-2.98L18.76-2.98Q22.3-2.98 26.72-4.22L26.72-4.22 26.72-0.83Q23.26 0.46 18.17 0.46L18.17 0.46Q10.82 0.46 6.83-3.99L6.83-3.99Q2.83-8.49 2.83-16.68L2.83-16.68Q2.81-20.48 3.93-23.67 5.06-26.87 7.13-29.1 9.2-31.32 12.21-32.55 15.22-33.77 18.86-33.75L18.86-33.75Q24.14-33.75 28.01-31.83L28.01-31.83 26.37-28.51Q22.65-30.28 18.81-30.28ZM42.87-29.88L37.84-29.88 37.84-17.16 43.15-17.16Q47.22-17.16 49.14-18.77 51.06-20.37 51.06-23.66 51.06-26.95 49.11-28.41 47.17-29.88 42.87-29.88L42.87-29.88ZM44.76-13.83L37.84-13.83 37.84 0 33.97 0 33.97-33.27 43.1-33.27Q49.19-33.27 52.12-30.93 55.05-28.59 55.05-23.86L55.05-23.86Q55.05-17.24 48.38-14.94L48.38-14.94 57.4 0 52.83 0 44.76-13.83ZM66.32-21.16L66.32-21.16 66.32 0 62.76 0 62.76-33.27 68.57-33.27 79.12-5.81 79.29-5.81 89.91-33.27 95.7-33.27 95.7 0 91.83 0 91.83-21.44Q91.83-25.28 92.16-29.45L92.16-29.45 91.96-29.45 80.58 0 77.47 0 66.2-29.47 66.02-29.47Q66.32-25.99 66.32-21.16Z" fill="#fbfbfb" data-fill-palette-color="primary"></path></g></svg></g></svg></g></svg></g></svg></g><g transform="matrix(1,0,0,1,120.86843795647006,0)"><svg viewBox="0 0 155.7607240870598 201.2977942889372" height="201.2977942889372" width="155.7607240870598"><g><svg xmlns="http://www.w3.org/2000/svg" xmlns:xlink="http://www.w3.org/1999/xlink" version="1.1" x="0" y="0" viewBox="12.982999801635742 1 75.68599700927734 97.81300354003906" enable-background="new 0 0 100 100" xml:space="preserve" height="201.2977942889372" width="155.7607240870598" class="icon-icon-0" data-fill-palette-color="accent" id="icon-0"><g fill="#2f76db" data-fill-palette-color="accent"><polygon fill-rule="evenodd" clip-rule="evenodd" points="12.983,10.59 30.001,98.813 24.129,39.764 53.15,37.872 53.096,27.989    64.549,1 53.622,18.977  " fill="#2f76db" data-fill-palette-color="accent"></polygon><polygon fill-rule="evenodd" clip-rule="evenodd" points="59.389,54.548 64.549,1.007 55.809,40.723 36.197,41.768 37.767,62.23    30.001,98.813 42.058,58.914  " fill="#2f76db" data-fill-palette-color="accent"></polygon><polygon fill-rule="evenodd" clip-rule="evenodd" points="62.8,67.182 63.349,56.729 47.37,60.484 47.338,72.281 30.001,98.813    51.681,71.197  " fill="#2f76db" data-fill-palette-color="accent"></polygon><polygon fill-rule="evenodd" clip-rule="evenodd" points="65.711,62.394 80.552,57.663 82.061,45.131 66.162,47.226  " fill="#2f76db" data-fill-palette-color="accent"></polygon><polygon fill-rule="evenodd" clip-rule="evenodd" points="72.07,44.502 83.058,43.085 84.639,32.807 76.56,32.434 64.549,1    72.979,31.967  " fill="#2f76db" data-fill-palette-color="accent"></polygon><polygon fill-rule="evenodd" clip-rule="evenodd" points="87.413,31.294 88.669,21.788 79.125,19.094 64.549,1 79.032,23.437    78.61,30.437  " fill="#2f76db" data-fill-palette-color="accent"></polygon></g></svg></g></svg></g><g></g></svg></g><defs></defs></svg><rect width="229.12109324698943" height="247.2" fill="none" stroke="none" visibility="hidden"></rect></g></svg></g></svg>